<?xml version="1.0" encoding="iso-8859-1"?>
<!-- Generator: Adobe Illustrator 19.0.0, SVG Export Plug-In . SVG Version: 6.00 Build 0)  -->
<svg version="1.1" id="Capa_1" xmlns="http://www.w3.org/2000/svg" xmlns:xlink="http://www.w3.org/1999/xlink" x="0px" y="0px"
	 viewBox="0 0 511.999 511.999" style="enable-background:new 0 0 511.999 511.999;" xml:space="preserve">
<path style="fill:#85E374;" d="M340.6,101.475c59.718,1.974,89.169,48.85,79.893,100.414l-39.882-39.882l-40.002,40.002
	l-40.002-40.002l-39.692,39.692c0.83-6.14,1.34-11.54,1.59-16.061C265.847,125.316,298.768,100.075,340.6,101.475z"/>
<path style="fill:#FD6244;" d="M380.611,162.007l39.882,39.882c-0.43,2.39-0.94,4.78-1.54,7.18
	c-26.171,104.724-136.865,243.9-303.312,292.071c-21.251,6.15-34.951-21.351-16.981-34.071
	c118.175-83.703,154.466-207.548,162.256-265.37l39.692-39.692l40.002,40.002L380.611,162.007z"/>
<path d="M360.36,272.012c5.52,0,10-4.48,10-10s-4.48-10-10-10s-10,4.48-10,10S354.84,272.012,360.36,272.012z"/>
<path d="M92.632,458.907c-11.893,8.418-15.83,23.373-9.57,36.367c6.38,13.249,20.821,19.61,35.109,15.473
	c78.163-22.621,150.328-66.713,208.693-127.509c59.557-62.037,93.807-131.599,102.853-177.711c0.434-1.156,0.652-2.375,0.643-3.594
	c8.445-51.344-18.603-97.732-69.391-108.018c-3.725-0.755-7.426-1.327-11.081-1.74c-2.365-26.751-13.51-60.505-24.473-82.424
	l-2.11-4.22c-2.47-4.939-8.476-6.942-13.418-4.473c-4.94,2.47-6.942,8.477-4.472,13.417l2.111,4.222
	c9.57,19.134,19.722,49.372,22.236,73.01c-41.581,3.026-74.103,32.221-77.49,93.382c-0.858,15.521-2.176,14.367-1.873,17.806
	C245.65,235.156,218.751,369.577,92.632,458.907z M337.014,111.42c1.939,0.689,3.958,0.781,6.006,0.217
	c42.832,2.813,67.17,30.964,68.819,67.706l-24.406-24.406c-3.905-3.904-10.237-3.904-14.144,0l-32.93,32.93l-32.93-32.93
	c-1.875-1.875-4.419-2.929-7.071-2.929c-2.652,0-5.196,1.054-7.071,2.929l-19.987,19.988
	C278.747,133.777,301.04,111.425,337.014,111.42z M229.84,329.223c26.789-52.515,36.661-98.313,40.259-122.815l30.258-30.257
	l32.93,32.93c3.905,3.904,10.237,3.904,14.144,0l32.93-32.93l28.988,28.988c-25.865,110.882-142.14,241.652-296.739,286.396
	c-7.642,2.215-10.944-3.727-11.529-4.939c-0.772-1.604-2.831-7.161,3.108-11.365C157.352,437.576,199.626,388.452,229.84,329.223z"
	/>
<path d="M285.68,369.318c22.502-21.053,42.77-44.09,60.238-68.471c3.217-4.489,2.186-10.736-2.304-13.954
	c-4.49-3.216-10.737-2.187-13.954,2.305c-16.707,23.314-36.101,45.357-57.646,65.516c-4.033,3.772-4.244,10.101-0.47,14.135
	C275.312,372.875,281.64,373.097,285.68,369.318z"/>
<g>
</g>
<g>
</g>
<g>
</g>
<g>
</g>
<g>
</g>
<g>
</g>
<g>
</g>
<g>
</g>
<g>
</g>
<g>
</g>
<g>
</g>
<g>
</g>
<g>
</g>
<g>
</g>
<g>
</g>
</svg>
